<svg width="222" height="107" viewBox="0 0 222 107" fill="none" xmlns="http://www.w3.org/2000/svg">
<path d="M0.688 57.096V48.84H10.48V38.184L19.504 31.944V48.84H32.656V57.096H19.504V83.208C19.504 94.44 21.52 96.36 32.656 96.36V105H31.312C14.896 105 10.48 100.2 10.48 83.304V57.096H0.688ZM70.5748 21.544L85.4228 0.679993H98.8628L80.1748 21.544H70.5748ZM75.9508 106.536C54.4468 106.536 37.1668 89.512 37.1668 67.624C37.1668 45.608 54.4468 28.584 75.9508 28.584C97.4548 28.584 114.863 45.608 114.863 67.624C114.863 89.512 97.4548 106.536 75.9508 106.536ZM75.9508 95.272C90.9268 95.272 102.703 82.856 102.703 67.624C102.703 52.264 90.9268 39.848 75.9508 39.848C61.1028 39.848 49.4548 52.264 49.4548 67.624C49.4548 82.856 61.1028 95.272 75.9508 95.272ZM161.763 106.536C151.139 106.536 140.131 101.544 134.115 92.456V105H122.339V10.28H134.243V42.536C140.259 33.704 151.011 28.584 161.635 28.584C183.011 28.584 199.779 45.224 199.779 67.624C199.779 89.896 182.627 106.536 161.763 106.536ZM160.611 95.272C175.715 95.272 187.491 82.984 187.491 67.496C187.491 52.136 175.715 39.72 160.611 39.72C144.867 39.72 133.347 52.136 133.347 67.496C133.347 82.984 144.867 95.272 160.611 95.272ZM206.686 105V30.12H218.974V105H206.686ZM204.126 11.816C204.126 6.696 207.582 3.24 212.83 3.24C218.462 3.24 221.662 6.696 221.662 11.816C221.662 17.064 218.462 20.52 212.83 20.52C207.326 20.52 204.126 17.064 204.126 11.816Z" fill="black"/>
</svg>
